<svg width="24" height="24" viewBox="0 0 24 24" fill="none" xmlns="http://www.w3.org/2000/svg">
<path fill-rule="evenodd" clip-rule="evenodd" d="M3.95123 8V16C3.95123 16.5523 4.39895 17 4.95123 17H16.5714C16.8634 17 17.1407 16.8724 17.3307 16.6508L20.7593 12.6508C21.0802 12.2763 21.0802 11.7237 20.7593 11.3492L17.3307 7.34921C17.1407 7.12756 16.8634 7 16.5714 7L4.95123 7C4.39895 7 3.95123 7.44772 3.95123 8ZM1.95123 8V16C1.95123 17.6569 3.29438 19 4.95123 19H16.5714C17.4472 19 18.2793 18.6173 18.8492 17.9524L22.2778 13.9524C23.2407 12.8289 23.2407 11.1711 22.2778 10.0476L18.8492 6.04763C18.2793 5.38269 17.4472 5 16.5714 5L4.95123 5C3.29438 5 1.95123 6.34315 1.95123 8Z" fill="#1672EC"/>
<path fill-rule="evenodd" clip-rule="evenodd" d="M14.9512 13C15.5035 13 15.9512 12.5523 15.9512 12C15.9512 11.4477 15.5035 11 14.9512 11C14.3989 11 13.9512 11.4477 13.9512 12C13.9512 12.5523 14.3989 13 14.9512 13ZM14.9512 15C16.6081 15 17.9512 13.6569 17.9512 12C17.9512 10.3431 16.6081 9 14.9512 9C13.2944 9 11.9512 10.3431 11.9512 12C11.9512 13.6569 13.2944 15 14.9512 15Z" fill="#1672EC"/>
</svg>
