<svg width="24" height="24" viewBox="0 0 24 24" fill="none" xmlns="http://www.w3.org/2000/svg">
<path fill-rule="evenodd" clip-rule="evenodd" d="M8 7C8 9.20914 9.79086 11 12 11C14.2091 11 16 9.20914 16 7C16 4.79086 14.2091 3 12 3C9.79086 3 8 4.79086 8 7ZM10 7C10 8.10457 10.8954 9 12 9C13.1046 9 14 8.10457 14 7C14 5.89543 13.1046 5 12 5C10.8954 5 10 5.89543 10 7Z" fill="#1672EC"/>
<path d="M7 15C7 14.4477 7.44772 14 8 14H16C16.5523 14 17 14.4477 17 15V21H19V15C19 13.3431 17.6569 12 16 12H8C6.34315 12 5 13.3431 5 15V21H7V15Z" fill="#1672EC"/>
</svg>
