<svg width="48" height="48" viewBox="0 0 48 48" fill="none" xmlns="http://www.w3.org/2000/svg">
<path fill-rule="evenodd" clip-rule="evenodd" d="M18.2609 14H13.4692V16H16.6876L19.4564 28.6776H19.4692V29H32.4692V28.7519L34.6625 19.091L35 18H19.1244L18.5541 15.3885L18.2609 14ZM32.4561 20H19.5612L21.09 27H30.867L32.4561 20Z" fill="#616161"/>
<path d="M22.4692 34C23.5738 34 24.4692 33.1046 24.4692 32C24.4692 30.8954 23.5738 30 22.4692 30C21.3647 30 20.4692 30.8954 20.4692 32C20.4692 33.1046 21.3647 34 22.4692 34Z" fill="#616161"/>
<path d="M31.4692 32C31.4692 33.1046 30.5738 34 29.4692 34C28.3647 34 27.4692 33.1046 27.4692 32C27.4692 30.8954 28.3647 30 29.4692 30C30.5738 30 31.4692 30.8954 31.4692 32Z" fill="#616161"/>
</svg>
