<svg width="24" height="24" viewBox="0 0 24 24" fill="none" xmlns="http://www.w3.org/2000/svg">
<path fill-rule="evenodd" clip-rule="evenodd" d="M6.2609 2L1.46924 2V4H4.68764L7.45644 16.6776H7.46924V17H20.4692V16.7519L22.6625 7.09095L23 6L7.12444 6L6.55409 3.38852L6.2609 2ZM20.4561 8L7.56124 8L9.09005 15H18.867L20.4561 8Z" fill="#616161"/>
<path d="M10.4692 22C11.5738 22 12.4692 21.1046 12.4692 20C12.4692 18.8954 11.5738 18 10.4692 18C9.36467 18 8.46924 18.8954 8.46924 20C8.46924 21.1046 9.36467 22 10.4692 22Z" fill="#616161"/>
<path d="M19.4692 20C19.4692 21.1046 18.5738 22 17.4692 22C16.3647 22 15.4692 21.1046 15.4692 20C15.4692 18.8954 16.3647 18 17.4692 18C18.5738 18 19.4692 18.8954 19.4692 20Z" fill="#616161"/>
</svg>
